<svg t="1703647670657" class="icon" viewBox="0 0 1024 1024" version="1.1" xmlns="http://www.w3.org/2000/svg" p-id="3916" width="200" height="200"><path d="M776.859252 877.118761a5.020903 5.020903 0 0 0-2.576517 4.558452c2.378323 63.157677-39.308387 115.877161-99.228903 132.525419-12.241755 3.435355-33.098323 5.199277-62.563097 5.285162-116.095174 0.356748-232.216774 0.594581-348.358193 0.726709-82.316387 0.09249-133.912774-37.987097-154.789161-114.225548-1.981935-7.201032-2.246194-17.969548-4.294194-26.756129a9.843613 9.843613 0 0 0-3.171097-5.086968c-5.985445-5.060542-11.977497-10.041806-17.969548-14.930581-53.380129-43.800774-46.773677-104.844387-45.584516-178.374193 1.123097-73.463742 2.114065-100.087742 53.578322-146.663226a6.804645 6.804645 0 0 0 2.246194-5.483355c-2.642581-43.602581-8.588387-89.517419 11.164903-130.081032 23.452903-48.227097 65.007484-76.568774 119.444645-80.136258 2.292439-0.132129 3.792103-1.294865 4.492387-3.501419a660.328052 660.328052 0 0 1 24.113549-64.677162c55.097806-126.711742 172.626581-212.397419 304.887742-242.456774 109.733161-24.906323 170.71071 25.633032 256 79.343484 15.459097 9.777548 31.975226 16.714323 48.491355 24.576 44.355716 21.233135 78.663019 49.706942 102.928516 85.421419 42.28129 62.232774 7.333161 135.89471-60.647226 153.864258-86.940903 22.990452-96.123871-71.283613-159.281548-76.766967a15.888516 15.888516 0 0 0-16.251871 10.107871l-13.278968 34.023225a6.507355 6.507355 0 0 0 0.231226 5.080362c0.766348 1.585548 2.133884 2.77471 3.798709 3.309832 80.400516 26.359742 76.040258 133.648516 68.641033 197.004387a7.134968 7.134968 0 0 0 1.915871 5.747613c39.308387 41.356387 58.136774 58.467097 57.013677 121.030193-0.660645 35.985342-1.123097 71.924439-1.387355 107.817291-0.350142 53.690632-23.538787 93.263277-69.565935 118.717935z m-218.937807-802.617806c-118.916129 33.362581-223.364129 118.321548-257.585548 240.93729a7.861677 7.861677 0 0 0 7.399226 9.975742l14.468129 0.462452c15.591226 15.194839 23.016877 33.058684 22.263742 53.578322-19.026581 7.267097-39.969032 9.711484-62.827355 7.333162-14.970219-1.539303-25.566968-2.219768-31.777033-2.048-62.364903 1.915871-87.997935 11.891613-92.093935 79.013161-1.32129 20.968877-1.671432 40.431484-1.057032 58.401032 0.224619 5.377652 3.019148 8.059871 8.390193 8.059871l477.250065 0.264258 84.958968-0.066064c0.964542 0 1.889445-0.396387 2.55009-1.109884a3.600516 3.600516 0 0 0 0.951329-2.655794c-1.407174-27.12609-2.642581-54.503226-3.699613-82.118193-2.312258-59.458065-56.485161-58.401032-103.589161-55.692387l-209.358452 1.717677c-7.174606 0.046245-9.909677-3.408929-8.192-10.372129l2.77471-11.032774c1.453419-13.959432-1.539303-26.313497-8.984774-37.062194a4.162065 4.162065 0 0 1 3.36929-6.540387l237.568-1.387355c2.338684-0.039639 3.659974-1.208981 3.963871-3.501419l2.114064-16.516129c13.477161-61.109677 46.443355-111.186581 117.528775-93.217032 48.359226 12.221935 78.682839 46.707613 109.402838 83.175225 3.726039 4.432929 10.259819 5.238916 14.996645 1.849807 60.647226-43.668645-5.41729-99.162839-44.725677-120.765936a5243.448155 5243.448155 0 0 1-101.739355-57.542193c-59.590194-39.572645-111.649032-66.196645-184.32-43.140129z m130.411355 736.751484c42.545548 1.717677 90.706581 4.492387 92.16-46.905807 0.885265-32.279123 1.037213-64.545032 0.462452-96.784516-0.462452-29.596903 0.72671-43.602581-10.570323-64.21471a16.020645 16.020645 0 0 0-13.212903-8.324129l-60.184774-2.972903c-181.717058-0.568155-361.874994 0.026426-540.473807 1.783742-16.952155 0.178374-29.154271 2.642581-36.599742 7.399226-12.063381 7.795613-18.432 20.063794-19.092645 36.797935-1.057032 26.782555-0.132129 70.755097 2.77471 131.930839 1.783742 37.656774 29.99329 40.893935 59.788387 40.96 175.427716 0.396387 350.406194 0.508697 524.948645 0.330323z m-39.704774 138.603355c35.212387-1.387355 55.428129-35.476645 61.44-67.121549 0.488877-2.332077-0.462452-3.521239-2.840774-3.567484l-71.547871-1.519484-457.232516 0.066065a6.077935 6.077935 0 0 0-5.945807 7.267097c6.540387 32.239484 31.050323 67.319742 66.85729 67.584 124.42591 0.885265 248.845213 1.037213 373.264517 0.462451 6.738581-0.039639 18.742503-1.096671 36.005161-3.171096z" fill="#343333" p-id="3917"></path><path d="M742.241445 117.641084c0.660645 2.028181 0.687071 3.877987 0.066065 5.549419a3.699613 3.699613 0 0 1-4.888775 2.048c-57.145806-24.642065-118.717935 26.293677-137.612387 76.50271-9.711484 25.699097-12.155871 61.109677-13.939613 90.574452a13.873548 13.873548 0 0 0 14.137807 14.666322l31.248516-0.660645c1.32129-0.039639 2.510452-0.462452 3.567484-1.255226l5.285161-4.162064c1.717677-1.32129 3.329652-1.2288 4.82271 0.264258 0.753135 0.70689 1.367535 1.697858 1.849806 2.972903l-2.114064 16.516129c-0.303897 2.292439-1.625187 3.461781-3.963871 3.501419l-237.568 1.387355a4.162065 4.162065 0 0 0-3.36929 6.540387c7.445471 10.748697 10.438194 23.102761 8.984774 37.062194-12.109626 10.266426-33.534348 13.701781-64.280774 10.306064 0.753135-20.519639-6.672516-38.383484-22.263742-53.578322 19.356903-14.732387 40.96-14.666323 63.091613-13.411097a9.348129 9.348129 0 0 0 9.711483-7.795613c14.137806-86.874839 85.619613-182.800516 163.24542-223.496258 1.453419-0.700284 2.510452-1.539303 3.171097-2.510452 2.16031-2.906839 0.990968-4.294194-3.50142-4.162064 72.670968-23.056516 124.729806 3.567484 184.32 43.140129z" fill="#FF5646" p-id="3918"></path><path d="M557.921445 74.500955c4.492387-0.132129 5.661729 1.255226 3.50142 4.162064-0.660645 0.971148-1.717677 1.810168-3.171097 2.510452-77.625806 40.695742-149.107613 136.621419-163.24542 223.496258a9.348129 9.348129 0 0 1-9.711483 7.795613c-22.131613-1.255226-43.73471-1.32129-63.091613 13.411097l-14.468129-0.462452a7.861677 7.861677 0 0 1-7.399226-9.975742c34.221419-122.615742 138.669419-207.57471 257.585548-240.93729z" fill="#FBD2BD" p-id="3919"></path><path d="M742.241445 117.641084c33.692903 19.555097 67.610426 38.740232 101.739355 57.542193 39.308387 21.603097 105.372903 77.09729 44.725677 120.765936a11.131871 11.131871 0 0 1-14.996645-1.849807c-30.72-36.467613-61.043613-70.95329-109.402838-83.175225-71.085419-17.969548-104.051613 32.107355-117.528775 93.217032a7.815432 7.815432 0 0 0-1.849806-2.972903c-1.493058-1.493058-3.105032-1.585548-4.82271-0.264258l-5.285161 4.162064a6.150606 6.150606 0 0 1-3.567484 1.255226l-31.248516 0.660645a13.873548 13.873548 0 0 1-14.137807-14.666322c1.783742-29.464774 4.228129-64.875355 13.939613-90.574452 18.894452-50.209032 80.466581-101.144774 137.612387-76.50271a3.699613 3.699613 0 0 0 4.888775-2.048c0.621006-1.671432 0.594581-3.521239-0.066065-5.549419z" fill="#CD4C3D" p-id="3920"></path><path d="M408.747768 369.148697l-2.77471 11.032774c-1.717677 6.9632 1.017394 10.418374 8.192 10.372129l209.358452-1.717677c2.953084 2.16031 4.426323 6.831071 4.426322 14.005677 0 6.038297 0.330323 10.768516 0.990968 14.203871a795.568723 795.568723 0 0 1 13.411097 113.432774l-477.250065-0.264258c-5.371045 0-8.165574-2.682219-8.390193-8.059871-0.6144-17.969548-0.264258-37.432155 1.057032-58.401032 4.096-67.121548 29.729032-77.09729 92.093935-79.013161 6.210065-0.171768 16.806813 0.508697 31.777033 2.048 22.858323 2.378323 43.800774-0.066065 62.827355-7.333162 30.746426 3.395716 52.171148-0.039639 64.280774-10.306064z" fill="#FEFEFE" p-id="3921"></path><path d="M623.52351 388.835923c47.104-2.708645 101.276903-3.765677 103.589161 55.692387 1.057032 27.614968 2.292439 54.992103 3.699613 82.118193a3.600516 3.600516 0 0 1-0.951329 2.655794 3.468387 3.468387 0 0 1-2.55009 1.109884l-84.958968 0.066064c-1.803561-38.581677-6.276129-76.3904-13.411097-113.432774-0.660645-3.435355-0.990968-8.165574-0.990968-14.203871 0-7.174606-1.473239-11.845368-4.426322-14.005677z" fill="#CBCCCE" p-id="3922"></path><path d="M696.987252 592.050374c2.510452 35.238813 4.492387 70.385135 5.945806 105.438968 1.810168 42.902297-3.058787 80.823329-14.600258 113.763097-174.542452 0.178374-349.520929 0.066065-524.948645-0.330323-29.795097-0.066065-58.004645-3.303226-59.788387-40.96-2.906839-61.175742-3.831742-105.148284-2.77471-131.930839 0.660645-16.734142 7.029265-29.002323 19.092645-36.797935 7.445471-4.756645 19.647587-7.220852 36.599742-7.399226 178.598813-1.757316 358.756748-2.351897 540.473807-1.783742z" fill="#FEFEFE" p-id="3923"></path><path d="M696.987252 592.050374l60.184774 2.972903c5.542813 0.290684 10.543897 3.441961 13.212903 8.324129 11.297032 20.612129 10.107871 34.617806 10.570323 64.21471 0.574761 32.239484 0.422813 64.505394-0.462452 96.784516-1.453419 51.398194-49.614452 48.623484-92.16 46.905807 11.541471-32.939768 16.410426-70.8608 14.600258-113.763097a3556.186839 3556.186839 0 0 0-5.945806-105.438968z" fill="#CBCCCE" p-id="3924"></path><path d="M635.679381 877.647277l1.32129 56.617291c0.046245 2.378323 0.905084 4.426323 2.576516 6.144l9.050839 9.447226c-17.262658 2.074426-29.266581 3.131458-36.005161 3.171096-124.419303 0.574761-248.838606 0.422813-373.264517-0.462451-35.806968-0.264258-60.316903-35.344516-66.85729-67.584a6.077935 6.077935 0 0 1 5.945807-7.267097l457.232516-0.066065z" fill="#FEFEFE" p-id="3925"></path><path d="M635.679381 877.647277l71.547871 1.519484c2.378323 0.046245 3.329652 1.235406 2.840774 3.567484-6.011871 31.644903-26.227613 65.734194-61.44 67.121549l-9.050839-9.447226a8.746942 8.746942 0 0 1-2.576516-6.144l-1.32129-56.617291z" fill="#CBCCCE" p-id="3926"></path></svg>